<?xml version="1.0" standalone="no"?>
<!DOCTYPE svg PUBLIC "-//W3C//DTD SVG 20010904//EN"
 "http://www.w3.org/TR/2001/REC-SVG-20010904/DTD/svg10.dtd">
<svg version="1.0" xmlns="http://www.w3.org/2000/svg"
 width="1535.000000pt" height="1535.000000pt" viewBox="0 0 1535.000000 1535.000000"
 preserveAspectRatio="xMidYMid meet">
<metadata>
Created by potrace 1.14, written by Peter Selinger 2001-2017
</metadata>
<g transform="translate(0.000000,1535.000000) scale(0.100000,-0.100000)"
fill="#000000" stroke="none">
<path d="M297 14400 c102 -201 227 -446 278 -545 51 -99 152 -297 225 -440 73
-143 183 -359 245 -480 62 -121 170 -332 240 -470 70 -137 178 -349 240 -470
62 -121 168 -328 235 -460 67 -132 127 -246 132 -252 6 -7 7 -13 3 -13 -4 0
-3 -6 3 -12 9 -12 51 -94 357 -693 239 -469 377 -740 485 -950 59 -115 165
-322 235 -460 179 -351 360 -706 480 -940 56 -110 169 -330 250 -490 81 -159
200 -393 265 -520 65 -126 167 -327 228 -445 60 -118 157 -307 214 -420 58
-113 169 -331 248 -485 78 -154 193 -379 255 -500 62 -121 170 -332 240 -470
272 -532 372 -728 485 -950 133 -261 296 -581 490 -960 130 -256 247 -484 460
-900 59 -115 172 -336 250 -490 79 -154 192 -377 253 -495 60 -118 142 -278
181 -355 l71 -140 320 0 c176 0 327 1 335 3 8 2 68 107 133 235 65 128 178
349 251 492 73 143 217 427 320 630 181 354 255 501 568 1115 294 576 400 784
543 1065 81 160 203 398 270 530 123 240 278 545 545 1070 78 154 198 388 265
520 67 132 198 389 290 570 92 182 216 425 275 540 59 116 178 350 265 520 87
171 215 423 285 560 295 578 395 775 535 1050 81 160 203 398 270 530 67 132
191 375 275 540 84 165 210 413 280 550 70 138 191 374 267 525 77 151 197
385 265 520 69 135 201 394 293 575 92 182 218 429 280 550 62 121 177 346
255 500 78 154 147 286 152 293 6 6 7 12 3 12 -4 0 -3 6 3 13 6 7 79 148 163
312 83 165 158 310 165 323 11 17 12 22 2 23 -7 1 -933 2 -2057 3 l-2044 1
-120 -245 c-67 -135 -121 -247 -122 -250 -1 -3 -40 -84 -87 -180 -207 -422
-356 -727 -433 -885 -45 -93 -140 -287 -210 -430 -70 -143 -165 -336 -210
-430 -45 -93 -144 -296 -220 -450 -75 -154 -170 -347 -210 -430 -40 -82 -133
-274 -207 -425 -239 -486 -397 -811 -523 -1075 -112 -234 -292 -614 -361 -762
-86 -184 -108 -231 -129 -278 -29 -65 -79 -172 -120 -260 -76 -163 -155 -336
-155 -340 0 -2 -22 -52 -50 -110 -27 -58 -50 -108 -50 -110 0 -3 -15 -37 -34
-77 -51 -111 -76 -166 -76 -171 0 -3 -18 -43 -39 -89 -22 -45 -50 -110 -64
-142 l-25 -60 -40 80 c-22 43 -63 131 -92 194 -29 63 -68 149 -87 190 -36 77
-113 247 -153 335 -12 27 -64 142 -115 255 -51 113 -109 240 -129 283 -20 43
-36 80 -36 82 0 2 -22 51 -50 110 -27 59 -50 108 -50 110 0 2 -18 43 -41 92
-22 48 -61 133 -86 188 -25 55 -67 146 -94 203 -27 57 -49 105 -49 107 0 2
-20 46 -43 97 -24 51 -59 125 -77 163 -18 39 -48 104 -68 145 -19 41 -54 116
-77 165 -108 230 -238 499 -625 1290 -67 138 -164 336 -215 440 -51 105 -154
316 -230 470 -76 154 -170 348 -210 430 -40 83 -131 269 -202 415 -72 146
-170 346 -218 445 -48 99 -153 313 -232 475 -80 162 -159 324 -175 360 -17 36
-33 67 -35 70 -2 2 -933 5 -2068 5 l-2064 0 186 -365z"/>
</g>
</svg>
