<?xml version="1.0" encoding="UTF-8"?><svg id="Calque_1" xmlns="http://www.w3.org/2000/svg" xmlns:xlink="http://www.w3.org/1999/xlink" viewBox="0 0 51.04 14.47"><defs><style>.cls-1{fill:none;}.cls-2{fill:#fff;}.cls-3{fill:#1d1d1b;}.cls-4{fill:url(#Dégradé_sans_nom_8);}</style><linearGradient id="Dégradé_sans_nom_8" x1="41.31" y1="10.61" x2="41.31" y2="14.07" gradientTransform="matrix(1, 0, 0, 1, 0, 0)" gradientUnits="userSpaceOnUse"><stop offset="0" stop-color="#fff"/><stop offset="1" stop-color="#fff" stop-opacity="0"/></linearGradient></defs><rect class="cls-3" x="-.23" y="-.27" width="51.28" height="14.81"/><g><polygon class="cls-1" points="34.92 12.1 37.07 12.09 37.07 12.09 34.92 12.09 34.92 12.1"/><rect class="cls-1" x="34.92" y="13.96" width="12.78" height="0"/><polygon class="cls-1" points="37.07 12.09 37.07 12.09 47.7 13.96 47.7 13.96 47.7 12.09 37.07 12.09"/><polygon class="cls-2" points="34.92 12.09 37.07 12.09 37.07 .39 30.66 .39 30.66 .4 34.92 .79 34.92 12.09"/><polygon class="cls-4" points="34.92 12.1 34.92 13.96 47.7 13.96 47.7 13.96 37.07 12.09 37.07 12.09 34.92 12.1"/><polygon points="34.92 13.96 34.92 13.96 34.91 13.96 34.92 13.96"/></g><g><path class="cls-2" d="M6.02,12.08c-.81,0-1.55-.13-2.24-.39-.69-.26-1.28-.63-1.78-1.1-.5-.47-.9-1.04-1.18-1.69-.29-.66-.43-1.38-.43-2.17v-.03c0-.75,.14-1.45,.42-2.11,.28-.66,.66-1.23,1.15-1.71,.49-.49,1.08-.87,1.76-1.15,.68-.28,1.42-.41,2.22-.41,.92,0,1.71,.13,2.37,.4,.67,.27,1.27,.64,1.83,1.11l-1.69,2.03c-.37-.32-.76-.56-1.15-.72-.39-.17-.84-.25-1.35-.25-.37,0-.72,.07-1.04,.22-.32,.15-.6,.35-.84,.61-.24,.26-.42,.56-.56,.9-.14,.35-.21,.71-.21,1.11v.03c0,.41,.07,.8,.21,1.15,.14,.35,.33,.66,.59,.91,.25,.25,.55,.45,.89,.59,.34,.14,.72,.21,1.13,.21,.67,0,1.23-.14,1.66-.43v-1.26h-2.04v-2.1h4.76v4.66c-.55,.45-1.2,.83-1.95,1.14-.75,.31-1.6,.46-2.54,.46"/><polygon class="cls-2" points="12.11 1.53 20.42 1.53 20.42 3.97 14.93 3.97 14.93 5.53 19.9 5.53 19.9 7.8 14.93 7.8 14.93 9.44 20.49 9.44 20.49 11.88 12.11 11.88 12.11 1.53"/><polygon class="cls-2" points="24.5 4.04 21.39 4.04 21.39 1.53 30.47 1.53 30.47 4.04 27.36 4.04 27.36 11.88 24.5 11.88 24.5 4.04"/><polygon class="cls-2" points="38.5 1.53 41.18 1.53 45.45 7 45.45 1.53 48.27 1.53 48.27 11.88 45.75 11.88 41.32 6.2 41.32 11.88 38.5 11.88 38.5 1.53"/></g></svg>