<?xml version="1.0" encoding="utf-8"?>
<!-- Generator: Adobe Illustrator 28.0.0, SVG Export Plug-In . SVG Version: 6.00 Build 0)  -->
<svg version="1.1" id="Calque_1" xmlns="http://www.w3.org/2000/svg" xmlns:xlink="http://www.w3.org/1999/xlink" x="0px" y="0px"
	 viewBox="0 0 51 14.5" style="enable-background:new 0 0 51 14.5;" xml:space="preserve">
<style type="text/css">
	.st0{fill:none;}
	.st1{fill:#FFFFFF;}
	.st2{fill:url(#SVGID_1_);}
</style>
<g>
	<polygon class="st0" points="34.9,12.1 37.1,12.1 37.1,12.1 34.9,12.1 	"/>
	<polygon class="st0" points="34.9,14 47.7,14 47.7,14 	"/>
	<polygon class="st0" points="37.1,12.1 37.1,12.1 47.7,14 47.7,14 47.7,12.1 	"/>
	<polygon class="st1" points="34.9,12.1 37.1,12.1 37.1,0.4 30.7,0.4 30.7,0.4 34.9,0.8 	"/>
	
		<linearGradient id="SVGID_1_" gradientUnits="userSpaceOnUse" x1="41.31" y1="3.2798" x2="41.31" y2="-0.1802" gradientTransform="matrix(1 0 0 -1 0 13.8898)">
		<stop  offset="0" style="stop-color:#FFFFFF"/>
		<stop  offset="1" style="stop-color:#FFFFFF;stop-opacity:0"/>
	</linearGradient>
	<polygon class="st2" points="34.9,12.1 34.9,14 47.7,14 47.7,14 37.1,12.1 37.1,12.1 	"/>
	<polygon points="34.9,14 34.9,14 34.9,14 	"/>
</g>
<g>
	<path class="st1" d="M6,12.1c-0.8,0-1.5-0.1-2.2-0.4S2.5,11.1,2,10.6s-0.9-1-1.2-1.7C0.5,8.2,0.4,7.5,0.4,6.7v0
		c0-0.8,0.1-1.5,0.4-2.1S1.5,3.4,2,2.9C2.5,2.4,3,2,3.7,1.7s1.4-0.4,2.2-0.4c0.9,0,1.7,0.1,2.4,0.4C9,2,9.6,2.4,10.1,2.8l-1.7,2
		C8.1,4.5,7.7,4.3,7.3,4.1C6.9,4,6.5,3.9,5.9,3.9c-0.4,0-0.7,0.1-1,0.2C4.6,4.3,4.3,4.5,4.1,4.7S3.6,5.3,3.5,5.6
		C3.4,6,3.3,6.3,3.3,6.7v0c0,0.4,0.1,0.8,0.2,1.2c0.1,0.4,0.3,0.7,0.6,0.9C4.3,9.1,4.6,9.3,5,9.4c0.3,0.1,0.7,0.2,1.1,0.2
		c0.7,0,1.2-0.1,1.7-0.4V7.9h-2V5.8h4.8v4.7c-0.6,0.4-1.2,0.8-1.9,1.1S6.9,12.1,6,12.1"/>
	<polygon class="st1" points="12.1,1.5 20.4,1.5 20.4,4 14.9,4 14.9,5.5 19.9,5.5 19.9,7.8 14.9,7.8 14.9,9.4 20.5,9.4 20.5,11.9 
		12.1,11.9 	"/>
	<polygon class="st1" points="24.5,4 21.4,4 21.4,1.5 30.5,1.5 30.5,4 27.4,4 27.4,11.9 24.5,11.9 	"/>
	<polygon class="st1" points="38.5,1.5 41.2,1.5 45.5,7 45.5,1.5 48.3,1.5 48.3,11.9 45.8,11.9 41.3,6.2 41.3,11.9 38.5,11.9 	"/>
</g>
</svg>
