<svg id="Calque_1" data-name="Calque 1" xmlns="http://www.w3.org/2000/svg" viewBox="0 0 130 130"><defs><style>.cls-1{fill:#fff;}</style></defs><circle cx="65" cy="65" r="64"/><path class="cls-1" d="M21,52l-1.61,4.9H17.26L22.55,41.3H25l5.31,15.58H28.14L26.48,52Zm5.11-1.57-1.52-4.49c-.35-1-.58-1.94-.81-2.84h-.05c-.23.92-.48,1.87-.78,2.82l-1.53,4.51Z"/><path class="cls-1" d="M33.91,56.88,30,41.3h2.13l1.85,7.88c.46,1.94.88,3.89,1.16,5.39h0c.25-1.55.74-3.4,1.27-5.41l2.08-7.86h2.11l1.89,7.91c.44,1.84.86,3.69,1.09,5.34h0c.33-1.72.77-3.45,1.25-5.39l2.06-7.86H49L44.56,56.88h-2.1l-2-8.11a48.84,48.84,0,0,1-1-5.09h0a48.66,48.66,0,0,1-1.2,5.09L36,56.88Z"/><path class="cls-1" d="M59,49.57H52.94v5.62h6.75v1.69H50.93V41.3h8.41V43h-6.4v4.92H59Z"/><path class="cls-1" d="M62,54.43a7.18,7.18,0,0,0,3.61,1c2,0,3.26-1.09,3.26-2.66s-.84-2.29-2.94-3.1c-2.54-.9-4.11-2.22-4.11-4.41,0-2.43,2-4.24,5-4.24a7.1,7.1,0,0,1,3.45.77l-.56,1.64a6.15,6.15,0,0,0-3-.74c-2.12,0-2.93,1.27-2.93,2.33,0,1.46.95,2.18,3.1,3,2.63,1,4,2.29,4,4.58s-1.78,4.48-5.45,4.48a8.12,8.12,0,0,1-4-1Z"/><path class="cls-1" d="M87,48.93c0,5.36-3.25,8.2-7.23,8.2s-7-3.19-7-7.9C72.78,44.28,75.86,41,80,41S87,44.3,87,48.93Zm-12.09.25c0,3.33,1.81,6.31,5,6.31s5-2.93,5-6.47c0-3.1-1.62-6.33-5-6.33S74.93,45.76,74.93,49.18Z"/><path class="cls-1" d="M102.77,50c-.11-2.18-.25-4.79-.23-6.73h-.07c-.53,1.83-1.17,3.77-2,5.92l-2.75,7.56H96.23l-2.52-7.42c-.74-2.2-1.36-4.21-1.8-6.06h0c0,1.94-.16,4.55-.3,6.89l-.41,6.68H89.23L90.32,41.3h2.56l2.66,7.54c.65,1.91,1.18,3.62,1.57,5.24h.07c.39-1.57.95-3.28,1.64-5.24l2.78-7.54h2.56l1,15.58h-2Z"/><path class="cls-1" d="M116.31,49.57h-6.06v5.62H117v1.69h-8.76V41.3h8.41V43h-6.4v4.92h6.06Z"/><path class="cls-1" d="M17.52,62h3.64V87.17H33.23v3.06H17.52Z"/><path class="cls-1" d="M59.8,75.81c0,9.73-5.91,14.88-13.12,14.88-7.46,0-12.7-5.78-12.7-14.33,0-9,5.58-14.84,13.12-14.84C54.81,61.52,59.8,67.43,59.8,75.81Zm-21.92.46c0,6,3.27,11.44,9,11.44s9-5.32,9-11.73c0-5.62-2.93-11.48-9-11.48S37.88,70.07,37.88,76.27Z"/><path class="cls-1" d="M86,89a26.26,26.26,0,0,1-8.68,1.55c-4.27,0-7.79-1.09-10.56-3.73a14.53,14.53,0,0,1-3.94-10.52c0-8.42,5.83-14.58,15.3-14.58a17.41,17.41,0,0,1,7,1.3l-.88,3a14.64,14.64,0,0,0-6.24-1.21c-6.88,0-11.36,4.27-11.36,11.36S71,87.51,77.6,87.51a11.9,11.9,0,0,0,4.87-.76V78.33H76.72V75.39H86Z"/><path class="cls-1" d="M115.74,75.81c0,9.73-5.91,14.88-13.12,14.88-7.46,0-12.7-5.78-12.7-14.33,0-9,5.57-14.84,13.12-14.84C110.75,61.52,115.74,67.43,115.74,75.81Zm-21.92.46c0,6,3.27,11.44,9,11.44s9-5.32,9-11.73c0-5.62-2.93-11.48-9-11.48S93.82,70.07,93.82,76.27Z"/></svg>