<?xml version="1.0" encoding="UTF-8"?><svg id="Calque_1" xmlns="http://www.w3.org/2000/svg" viewBox="0 0 442.67 81.24"><defs><style>.cls-1{fill:#3c3c3b;stroke-width:0px;}</style></defs><path class="cls-1" d="m0,38.2V1.29s25.64,0,25.64,0v8.56s-15.66,0-15.66,0v5.59s13.36,0,13.36,0v8.05s-13.36,0-13.36,0v6.15s16.47,0,16.47,0v8.56s-26.45,0-26.45,0Z"/><path class="cls-1" d="m63.23,38.72l-18.78-15.64c-1.53-1.28-2.98-2.41-3.43-2.82v17.94s-9.75,0-9.75,0V.78s1.35,0,1.35,0l18.68,15.58,3.39,2.87V1.29s9.84,0,9.84,0v37.42s-1.31,0-1.31,0Z"/><path class="cls-1" d="m104.06,38.2v-14.46s-12.84,0-12.84,0v14.46s-9.97,0-9.97,0V1.29s9.97,0,9.97,0v13.94s12.84,0,12.84,0V1.29s10.02,0,10.02,0v36.91s-10.02,0-10.02,0Z"/><path class="cls-1" d="m135.79.78h1.62s18.82,37.42,18.82,37.42h-10.52s-2.62-5.18-2.62-5.18h-13.09s-2.53,5.18-2.53,5.18h-10.52S135.79.78,135.79.78Zm4.65,25.53c-1.22-2.87-2.66-5.74-3.79-9.13-1.17,3.38-2.66,6.26-3.93,9.13h7.72Z"/><path class="cls-1" d="m188.71,24.36c0,9.13-6.37,14.61-17.02,14.61-10.61,0-16.97-5.49-16.97-14.61V1.29s9.97,0,9.97,0v21.79c0,4.05,2.62,6.46,7,6.46,4.38,0,7-2.41,7-6.46V1.29s10.02,0,10.02,0v23.07Z"/><path class="cls-1" d="m210.36,9.85v28.35s-10.02,0-10.02,0V9.85s-8.72,0-8.72,0V1.29s27.62,0,27.62,0v8.56s-8.88,0-8.88,0Z"/><path class="cls-1" d="m262.53,74.86v-36.91s25.64,0,25.64,0v8.56s-15.66,0-15.66,0v5.59s13.36,0,13.36,0v8.05s-13.36,0-13.36,0v6.15s16.47,0,16.47,0v8.56s-26.45,0-26.45,0Z"/><path class="cls-1" d="m325.76,75.37l-18.78-15.64c-1.53-1.28-2.98-2.41-3.43-2.82v17.94s-9.75,0-9.75,0v-37.42s1.35,0,1.35,0l18.68,15.58,3.39,2.87v-17.94s9.84,0,9.84,0v37.42s-1.31,0-1.31,0Z"/><path class="cls-1" d="m373.56,63.78c0,6.92-5.91,11.07-15.8,11.07h-13.99s0-36.91,0-36.91h13c9.61,0,15.34,3.95,15.34,10.56,0,3.23-1.9,5.84-5.01,6.97,4.02,1.08,6.45,4.21,6.45,8.3Zm-16.29-10.92c3.02,0,4.83-1.28,4.83-3.38,0-2.21-1.76-3.49-4.74-3.49h-4.06s0,6.87,0,6.87h3.97Zm-3.97,13.94h4.97c3.11,0,5.01-1.39,5.01-3.74s-1.81-3.69-4.78-3.69h-5.19s0,7.43,0,7.43Z"/><path class="cls-1" d="m393.2,37.43h1.63s18.82,37.42,18.82,37.42h-10.52s-2.62-5.18-2.62-5.18h-13.09s-2.53,5.18-2.53,5.18h-10.52s18.82-37.42,18.82-37.42Zm4.65,25.53c-1.22-2.87-2.66-5.74-3.79-9.13-1.17,3.38-2.66,6.26-3.93,9.13h7.72Z"/><path class="cls-1" d="m415.68,73.58v-9.69c3.52,1.64,7.9,2.67,11.69,2.67,3.47,0,5.32-.56,5.32-2,0-1.69-1.76-2.1-6.99-4.05-6.95-2.56-10.7-5.02-10.7-11.74,0-7.13,5.55-11.59,14.76-11.59,3.88,0,7.76.67,10.42,1.79v9.33c-2.57-1.28-6.27-2.26-10.06-2.26-3.39,0-5.46.56-5.46,2.41,0,1.59,2.39,2.41,6.95,4.2,6.55,2.57,11.06,5.03,11.06,11.69,0,7.33-5.23,11.28-14.76,11.28-4.33,0-9.2-.77-12.23-2.05Z"/><path class="cls-1" d="m279.37,30.99h-1.37s-14.97-29.14-14.97-29.14h8.54s3.87,7.86,3.87,7.86c1.33,2.71,2.46,5.35,3.23,6.95.7-1.6,1.9-4.19,3.27-6.95l3.87-7.86h8.5s-14.94,29.14-14.94,29.14Z"/><path class="cls-1" d="m298.1,1.01c2.5,0,4.08,1.52,4.08,3.95s-1.58,3.91-4.08,3.91-4.04-1.48-4.04-3.91c0-2.43,1.55-3.95,4.04-3.95Zm3.8,9.62v19.96s-7.56,0-7.56,0V10.63s7.56,0,7.56,0Z"/><path class="cls-1" d="m304.96,1.85h7.59s0,20.44,0,20.44c0,1.24.7,2,1.9,2,.81,0,1.65-.2,2.25-.52v6.71c-.95.44-2.67.72-4.64.72-4.43,0-7.1-2.55-7.1-6.79V1.85Z"/><path class="cls-1" d="m325.41,1.85v28.74s-7.59,0-7.59,0V1.85s7.59,0,7.59,0Z"/><path class="cls-1" d="m328.58,11.43c1.19-.52,4.08-1.4,7.94-1.4,6.68,0,10.19,2.75,10.19,8.06v12.49s-6.82,0-6.82,0l-.14-1.44c-.07-.72.07-1.2.07-1.2h-.11c-.7,1.48-3.06,3.23-6.15,3.23-3.44,0-6.68-1.83-6.68-6.19,0-5.03,5.27-7.26,12.3-6.35v-.12c0-1.4-1.37-2.15-4.01-2.15-2.5,0-5.24.84-6.61,1.64v-6.59Zm10.4,10.86c-3.51-.48-5.09.4-5.09,1.84,0,.92.77,1.44,1.86,1.44,1.86,0,3.23-1.2,3.23-3.27Z"/><path class="cls-1" d="m349.21,10.63h6.85s.28,2.75.28,2.75c1.27-2,3.09-3.35,6.08-3.35.67,0,1.3.08,1.34.08v7.58c-.11-.04-.81-.2-1.65-.2-2.74,0-5.34,1.48-5.34,4.91v8.18s-7.56,0-7.56,0V10.63Z"/><path class="cls-1" d="m364.88,1.85h7.59s0,20.44,0,20.44c0,1.24.7,2,1.9,2,.81,0,1.65-.2,2.25-.52v6.71c-.95.44-2.67.72-4.64.72-4.43,0-7.1-2.55-7.1-6.79V1.85Z"/><path class="cls-1" d="m375.22,32.54c.35.16,1.54.44,2.78.44,2.64,0,3.72-.96,4.67-2.2l-8.43-20.16h8.26s2.35,6.71,2.35,6.71c.74,2.16,1.34,4.27,1.76,6.43.42-2.16,1.02-4.19,1.79-6.43l2.36-6.71h8.19s-8.08,20.4-8.08,20.4c-2.56,6.51-6.36,8.9-11.84,8.9-1.79,0-3.27-.28-3.79-.48v-6.91Z"/><path class="cls-1" d="m98.53,72.3h-1.37s-14.97-29.14-14.97-29.14h8.54s3.87,7.86,3.87,7.86c1.33,2.71,2.46,5.35,3.23,6.95.7-1.6,1.9-4.19,3.27-6.95l3.87-7.86h8.5s-14.94,29.14-14.94,29.14Z"/><path class="cls-1" d="m117.26,42.32c2.5,0,4.08,1.52,4.08,3.95s-1.58,3.91-4.08,3.91-4.04-1.48-4.04-3.91c0-2.43,1.55-3.95,4.04-3.95Zm3.8,9.62v19.96s-7.56,0-7.56,0v-19.96s7.56,0,7.56,0Z"/><path class="cls-1" d="m124.12,43.16h7.59s0,20.44,0,20.44c0,1.24.7,2,1.9,2,.81,0,1.65-.2,2.25-.52v6.71c-.95.44-2.67.72-4.64.72-4.43,0-7.1-2.55-7.1-6.79v-22.55Z"/><path class="cls-1" d="m144.57,43.16v28.74s-7.59,0-7.59,0v-28.74s7.59,0,7.59,0Z"/><path class="cls-1" d="m147.73,52.74c1.19-.52,4.08-1.4,7.94-1.4,6.68,0,10.19,2.75,10.19,8.06v12.49s-6.82,0-6.82,0l-.14-1.44c-.07-.72.07-1.2.07-1.2h-.11c-.7,1.48-3.06,3.23-6.15,3.23-3.44,0-6.68-1.83-6.68-6.19,0-5.03,5.27-7.26,12.3-6.35v-.12c0-1.4-1.37-2.15-4.01-2.15-2.5,0-5.24.84-6.61,1.64v-6.59Zm10.4,10.86c-3.51-.48-5.09.4-5.09,1.84,0,.92.77,1.44,1.86,1.44,1.86,0,3.23-1.2,3.23-3.27Z"/><path class="cls-1" d="m168.36,51.94h6.85s.28,2.75.28,2.75c1.27-2,3.09-3.35,6.08-3.35.67,0,1.3.08,1.34.08v7.58c-.11-.04-.81-.2-1.65-.2-2.74,0-5.34,1.48-5.34,4.91v8.18s-7.56,0-7.56,0v-19.96Z"/><path class="cls-1" d="m184.04,43.16h7.59s0,20.44,0,20.44c0,1.24.7,2,1.9,2,.81,0,1.65-.2,2.25-.52v6.71c-.95.44-2.67.72-4.64.72-4.43,0-7.1-2.55-7.1-6.79v-22.55Z"/><path class="cls-1" d="m194.37,73.86c.35.16,1.54.44,2.78.44,2.64,0,3.72-.96,4.67-2.2l-8.43-20.16h8.26s2.35,6.71,2.35,6.71c.74,2.16,1.34,4.27,1.76,6.43.42-2.16,1.02-4.19,1.79-6.43l2.36-6.71h8.19s-8.08,20.4-8.08,20.4c-2.56,6.51-6.36,8.9-11.84,8.9-1.79,0-3.27-.28-3.79-.48v-6.91Z"/><rect class="cls-1" x="238.77" y="2.42" width=".94" height="73.66"/></svg>