<?xml version="1.0" encoding="UTF-8"?><svg id="Calque_1" xmlns="http://www.w3.org/2000/svg" viewBox="0 0 221.42 83.1"><defs><style>.cls-1{fill:#3c3c3b;stroke-width:0px;}</style></defs><path class="cls-1" d="m1.18,38.85V1.94s25.64,0,25.64,0v8.56s-15.66,0-15.66,0v5.59s13.36,0,13.36,0v8.05s-13.36,0-13.36,0v6.15s16.47,0,16.47,0v8.56s-26.45,0-26.45,0Z"/><path class="cls-1" d="m64.41,39.36l-18.78-15.64c-1.53-1.28-2.98-2.41-3.43-2.82v17.94s-9.75,0-9.75,0V1.42s1.35,0,1.35,0l18.68,15.58,3.39,2.87V1.94s9.84,0,9.84,0v37.42s-1.31,0-1.31,0Z"/><path class="cls-1" d="m105.24,38.85v-14.46s-12.84,0-12.84,0v14.46s-9.97,0-9.97,0V1.94s9.97,0,9.97,0v13.94s12.84,0,12.84,0V1.94s10.02,0,10.02,0v36.91s-10.02,0-10.02,0Z"/><path class="cls-1" d="m136.97,1.42h1.62s18.82,37.42,18.82,37.42h-10.52s-2.62-5.18-2.62-5.18h-13.09s-2.53,5.18-2.53,5.18h-10.52S136.97,1.42,136.97,1.42Zm4.65,25.53c-1.22-2.87-2.66-5.74-3.79-9.13-1.17,3.38-2.66,6.26-3.93,9.13h7.72Z"/><path class="cls-1" d="m189.89,25.01c0,9.13-6.37,14.61-17.02,14.61-10.61,0-16.97-5.49-16.97-14.61V1.94s9.97,0,9.97,0v21.79c0,4.05,2.62,6.46,7,6.46,4.38,0,7-2.41,7-6.46V1.94s10.02,0,10.02,0v23.07Z"/><path class="cls-1" d="m211.54,10.5v28.35s-10.02,0-10.02,0V10.5s-8.72,0-8.72,0V1.94s27.62,0,27.62,0v8.56s-8.88,0-8.88,0Z"/><path class="cls-1" d="m99.71,72.95h-1.37s-14.97-29.14-14.97-29.14h8.54s3.87,7.86,3.87,7.86c1.33,2.71,2.46,5.35,3.23,6.95.7-1.6,1.9-4.19,3.27-6.95l3.87-7.86h8.5s-14.94,29.14-14.94,29.14Z"/><path class="cls-1" d="m118.44,42.97c2.5,0,4.08,1.52,4.08,3.95s-1.58,3.91-4.08,3.91-4.04-1.48-4.04-3.91c0-2.43,1.55-3.95,4.04-3.95Zm3.8,9.62v19.96s-7.56,0-7.56,0v-19.96s7.56,0,7.56,0Z"/><path class="cls-1" d="m125.29,43.81h7.59s0,20.44,0,20.44c0,1.24.7,2,1.9,2,.81,0,1.65-.2,2.25-.52v6.71c-.95.44-2.67.72-4.64.72-4.43,0-7.1-2.55-7.1-6.79v-22.55Z"/><path class="cls-1" d="m145.75,43.81v28.74s-7.59,0-7.59,0v-28.74s7.59,0,7.59,0Z"/><path class="cls-1" d="m148.91,53.39c1.19-.52,4.08-1.4,7.94-1.4,6.68,0,10.19,2.75,10.19,8.06v12.49s-6.82,0-6.82,0l-.14-1.44c-.07-.72.07-1.2.07-1.2h-.11c-.7,1.48-3.06,3.23-6.15,3.23-3.44,0-6.68-1.83-6.68-6.19,0-5.03,5.27-7.26,12.3-6.35v-.12c0-1.4-1.37-2.15-4.01-2.15-2.5,0-5.24.84-6.61,1.64v-6.59Zm10.4,10.86c-3.51-.48-5.09.4-5.09,1.84,0,.92.77,1.44,1.86,1.44,1.86,0,3.23-1.2,3.23-3.27Z"/><path class="cls-1" d="m169.54,52.59h6.85s.28,2.75.28,2.75c1.27-2,3.09-3.35,6.08-3.35.67,0,1.3.08,1.34.08v7.58c-.11-.04-.81-.2-1.65-.2-2.74,0-5.34,1.48-5.34,4.91v8.18s-7.56,0-7.56,0v-19.96Z"/><path class="cls-1" d="m185.22,43.81h7.59s0,20.44,0,20.44c0,1.24.7,2,1.9,2,.81,0,1.65-.2,2.25-.52v6.71c-.95.44-2.67.72-4.64.72-4.43,0-7.1-2.55-7.1-6.79v-22.55Z"/><path class="cls-1" d="m195.55,74.5c.35.16,1.54.44,2.78.44,2.64,0,3.72-.96,4.67-2.2l-8.43-20.16h8.26s2.35,6.71,2.35,6.71c.74,2.16,1.34,4.27,1.76,6.43.42-2.16,1.02-4.19,1.79-6.43l2.36-6.71h8.19s-8.08,20.4-8.08,20.4c-2.56,6.51-6.36,8.9-11.84,8.9-1.79,0-3.27-.28-3.79-.48v-6.91Z"/></svg>